<?xml version="1.0" encoding="UTF-8"?>
<svg version="1.1" xmlns="http://www.w3.org/2000/svg" width="330" height="220">
<path d="M0 0 C108.9 0 217.8 0 330 0 C330 72.6 330 145.2 330 220 C221.1 220 112.2 220 0 220 C0 147.4 0 74.8 0 0 Z " fill="#FBCE16" transform="translate(0,0)"/>
<path d="M0 0 C108.9 0 217.8 0 330 0 C330 24.09 330 48.18 330 73 C221.1 73 112.2 73 0 73 C0 48.91 0 24.82 0 0 Z " fill="#006B3F" transform="translate(0,147)"/>
<path d="M0 0 C108.9 0 217.8 0 330 0 C330 24.09 330 48.18 330 73 C221.1 73 112.2 73 0 73 C0 48.91 0 24.82 0 0 Z " fill="#CE1126" transform="translate(0,0)"/>
<path d="M0 0 C54.12 0 108.24 0 164 0 C164 23.76 164 47.52 164 72 C117.47 72 70.94 72 23 72 C18.26394052 60.1598513 18.26394052 60.1598513 16.1875 54.125 C15.95869141 53.48820312 15.72988281 52.85140625 15.49414062 52.1953125 C14.30611969 48.70754462 13.68601533 46.47008828 15 43 C17.17881959 41.20378814 19.29097892 39.62730058 21.625 38.0625 C22.22957031 37.64548828 22.83414063 37.22847656 23.45703125 36.79882812 C24.61312945 36.00139152 25.77239817 35.20851419 26.93603516 34.42211914 C29.98515929 32.32120264 32.98687691 30.15223078 36 28 C22.14 27.505 22.14 27.505 8 27 C6.68 23.101875 5.36 19.20375 4 15.1875 C3.58234375 13.96184326 3.1646875 12.73618652 2.734375 11.47338867 C2.40953125 10.5063501 2.0846875 9.53931152 1.75 8.54296875 C1.41484375 7.55321045 1.0796875 6.56345215 0.734375 5.54370117 C0 3 0 3 0 0 Z " fill="#FBD015" transform="translate(166,74)"/>
<path d="M0 0 C0.66 0 1.32 0 2 0 C3.3381816 3.95671116 4.669722 7.91562528 6 11.875 C6.3815625 13.00292969 6.763125 14.13085938 7.15625 15.29296875 C7.69765625 16.90751953 7.69765625 16.90751953 8.25 18.5546875 C8.58515625 19.54968262 8.9203125 20.54467773 9.265625 21.56982422 C10 24 10 24 10 26 C19.57 26 29.14 26 39 26 C35.79641678 29.20358322 33.36931716 31.62894762 29.79296875 34.11328125 C29.04208984 34.63857422 28.29121094 35.16386719 27.51757812 35.70507812 C26.74865234 36.23552734 25.97972656 36.76597656 25.1875 37.3125 C24.39923828 37.86228516 23.61097656 38.41207031 22.79882812 38.97851562 C20.86898062 40.32356086 18.93603799 41.66388807 17 43 C18.17969004 48.78164923 19.65700746 54.31427691 21.625 59.875 C24 66.5997191 24 66.5997191 24 70 C18.0549022 68.17699149 13.61556347 63.95272583 8.8828125 60.08007812 C8.19960937 59.54447266 7.51640625 59.00886719 6.8125 58.45703125 C6.20019531 57.96178955 5.58789062 57.46654785 4.95703125 56.95629883 C2.21793403 55.61784526 0.86091468 56.04590562 -2 57 C-4.36921906 58.37950748 -4.36921906 58.37950748 -6.64453125 60.16015625 C-7.48564453 60.78857422 -8.32675781 61.41699219 -9.19335938 62.06445312 C-10.05767578 62.72380859 -10.92199219 63.38316406 -11.8125 64.0625 C-13.13797852 65.05733398 -13.13797852 65.05733398 -14.49023438 66.07226562 C-16.66615102 67.70714354 -18.83565981 69.34984534 -21 71 C-22.20777481 67.52770993 -21.78463624 65.54824928 -20.56640625 62.12109375 C-20.0878418 60.73954102 -20.0878418 60.73954102 -19.59960938 59.33007812 C-19.25736328 58.37552734 -18.91511719 57.42097656 -18.5625 56.4375 C-17.89318806 54.54175362 -17.22764829 52.64467 -16.56640625 50.74609375 C-16.26677979 49.90747803 -15.96715332 49.0688623 -15.65844727 48.20483398 C-14.8569248 45.9044165 -14.8569248 45.9044165 -15 43 C-16.62030665 41.43082768 -16.62030665 41.43082768 -18.796875 40.00390625 C-19.5909375 39.44509766 -20.385 38.88628906 -21.203125 38.31054688 C-22.04359375 37.73369141 -22.8840625 37.15683594 -23.75 36.5625 C-25.39300207 35.42138372 -27.03370395 34.27694709 -28.671875 33.12890625 C-29.4050293 32.62431885 -30.13818359 32.11973145 -30.89355469 31.59985352 C-33 30 -33 30 -37 26 C-27.43 26 -17.86 26 -8 26 C-7.01 22.37 -6.02 18.74 -5 15 C-4.12709556 12.25834241 -3.24378416 9.53320024 -2.3125 6.8125 C-2.08755859 6.14669922 -1.86261719 5.48089844 -1.63085938 4.79492188 C-1.09009689 3.1956456 -0.54549292 1.59766898 0 0 Z " fill="#060500" transform="translate(164,75)"/>
<path d="M0 0 C3.86665635 0.43155014 6.2362312 1.58705451 9.3203125 3.90625 C10.10277344 4.48503906 10.88523438 5.06382812 11.69140625 5.66015625 C12.49449219 6.26730469 13.29757813 6.87445313 14.125 7.5 C15.72925759 8.70128033 17.33592789 9.89934721 18.9453125 11.09375 C20.00516357 11.89329102 20.00516357 11.89329102 21.08642578 12.70898438 C24.59498202 15.07607361 27.59949344 15.13261907 31.71366882 15.15821838 C32.90418854 15.1680072 34.09470825 15.17779602 35.32130432 15.18788147 C36.62897263 15.19363693 37.93664093 15.1993924 39.28393555 15.20532227 C40.67352591 15.21490147 42.06311336 15.22491158 43.45269775 15.23532104 C47.2271745 15.26237157 51.00166375 15.28338033 54.77618384 15.30332303 C58.72001919 15.32518166 62.66381599 15.35257095 66.60762024 15.37937927 C74.07672675 15.42930781 81.54585465 15.47424605 89.01500303 15.51740164 C97.51795921 15.56677263 106.02087671 15.62169127 114.52379549 15.67708123 C132.01582791 15.79090376 149.50789623 15.89774222 167 16 C167 16.33 167 16.66 167 17 C58.1 17 -50.8 17 -163 17 C-163 16.67 -163 16.34 -163 16 C-162.28053035 16.00775137 -161.5610607 16.01550274 -160.81978893 16.023489 C-143.22968948 16.2081108 -125.64083356 16.31386243 -108.04977703 16.33421898 C-99.54230847 16.34592214 -91.03646695 16.38331076 -82.52954102 16.48339844 C-75.10577469 16.57067465 -67.68367052 16.60748634 -60.25939399 16.58627188 C-56.33549154 16.57675424 -52.41516634 16.5907491 -48.49188805 16.66541672 C-31.10315577 16.97938391 -17.6114425 16.43432553 -4.08894348 4.10440063 C-3.04897967 3.07996841 -2.01619598 2.04801329 -1 1 C-0.67 0.67 -0.34 0.34 0 0 Z " fill="#D2BE1C" transform="translate(163,130)"/>
</svg>
